<mxfile host="app.diagrams.net" modified="2022-07-24T17:42:19.525Z" agent="5.0 (Windows NT 10.0; Win64; x64) AppleWebKit/537.36 (KHTML, like Gecko) Chrome/103.0.0.0 Safari/537.36" etag="NGH9WqYcil8u_uJk_XCy" version="20.2.0" type="github" pages="7">
  <diagram name="Home" id="03018318-947c-dd8e-b7a3-06fadd420f32">
    <mxGraphModel dx="1363" dy="536" grid="1" gridSize="10" guides="1" tooltips="1" connect="1" arrows="1" fold="1" page="1" pageScale="1" pageWidth="1100" pageHeight="850" background="none" math="0" shadow="0">
      <root>
        <mxCell id="0" />
        <mxCell id="1" parent="0" />
        <mxCell id="677b7b8949515195-1" value="" style="whiteSpace=wrap;html=1;rounded=0;shadow=0;labelBackgroundColor=none;strokeColor=#000000;strokeWidth=1;fillColor=none;fontFamily=Verdana;fontSize=12;fontColor=#000000;align=center;comic=1;" parent="1" vertex="1">
          <mxGeometry x="20" y="20" width="1060" height="810" as="geometry" />
        </mxCell>
        <mxCell id="677b7b8949515195-16" value="" style="verticalLabelPosition=bottom;shadow=0;dashed=0;align=center;html=1;verticalAlign=top;strokeWidth=1;shape=mxgraph.mockup.graphics.simpleIcon;strokeColor=#999999;rounded=0;labelBackgroundColor=none;fontFamily=Verdana;fontSize=14;fontColor=#000000;comic=1;" parent="1" vertex="1">
          <mxGeometry x="30" y="30" width="1040" height="780" as="geometry" />
        </mxCell>
        <mxCell id="mzmMYwe42FAZlBr3h1_G-18" value="" style="ellipse;whiteSpace=wrap;html=1;aspect=fixed;" vertex="1" parent="1">
          <mxGeometry x="460" y="330" width="180" height="180" as="geometry" />
        </mxCell>
        <mxCell id="mzmMYwe42FAZlBr3h1_G-17" value="" style="ellipse;whiteSpace=wrap;html=1;aspect=fixed;" vertex="1" parent="1">
          <mxGeometry x="160" y="330" width="180" height="180" as="geometry" />
        </mxCell>
        <mxCell id="mzmMYwe42FAZlBr3h1_G-16" value="Plants" style="text;html=1;points=[];align=left;verticalAlign=top;spacingTop=-4;fontSize=14;fontFamily=Verdana" vertex="1" parent="1">
          <mxGeometry x="220" y="400" width="60" height="20" as="geometry" />
        </mxCell>
        <mxCell id="mzmMYwe42FAZlBr3h1_G-19" value="" style="ellipse;whiteSpace=wrap;html=1;aspect=fixed;" vertex="1" parent="1">
          <mxGeometry x="780" y="330" width="180" height="180" as="geometry" />
        </mxCell>
        <mxCell id="677b7b8949515195-11" value="Vertebrates" style="text;html=1;points=[];align=left;verticalAlign=top;spacingTop=-4;fontSize=14;fontFamily=Verdana" parent="1" vertex="1">
          <mxGeometry x="510" y="400" width="60" height="20" as="geometry" />
        </mxCell>
        <mxCell id="677b7b8949515195-12" value="Invertebrates" style="text;html=1;points=[];align=left;verticalAlign=top;spacingTop=-4;fontSize=14;fontFamily=Verdana" parent="1" vertex="1">
          <mxGeometry x="820" y="400" width="60" height="20" as="geometry" />
        </mxCell>
        <mxCell id="mzmMYwe42FAZlBr3h1_G-20" value="" style="rounded=1;whiteSpace=wrap;html=1;" vertex="1" parent="1">
          <mxGeometry x="40" y="40" width="450" height="60" as="geometry" />
        </mxCell>
        <mxCell id="mzmMYwe42FAZlBr3h1_G-21" value="Biodiversity Matters" style="text;html=1;strokeColor=none;fillColor=none;align=center;verticalAlign=middle;whiteSpace=wrap;rounded=0;" vertex="1" parent="1">
          <mxGeometry x="50" y="55" width="110" height="30" as="geometry" />
        </mxCell>
        <mxCell id="mzmMYwe42FAZlBr3h1_G-22" value="News&lt;span style=&quot;color: rgba(0, 0, 0, 0); font-family: monospace; font-size: 0px; text-align: start;&quot;&gt;%3CmxGraphModel%3E%3Croot%3E%3CmxCell%20id%3D%220%22%2F%3E%3CmxCell%20id%3D%221%22%20parent%3D%220%22%2F%3E%3CmxCell%20id%3D%222%22%20value%3D%22Biodiversity%20Matters%22%20style%3D%22text%3Bhtml%3D1%3BstrokeColor%3Dnone%3BfillColor%3Dnone%3Balign%3Dcenter%3BverticalAlign%3Dmiddle%3BwhiteSpace%3Dwrap%3Brounded%3D0%3B%22%20vertex%3D%221%22%20parent%3D%221%22%3E%3CmxGeometry%20x%3D%2250%22%20y%3D%2255%22%20width%3D%22110%22%20height%3D%2230%22%20as%3D%22geometry%22%2F%3E%3C%2FmxCell%3E%3C%2Froot%3E%3C%2FmxGraphModel%3E&lt;/span&gt;" style="text;html=1;strokeColor=none;fillColor=none;align=center;verticalAlign=middle;whiteSpace=wrap;rounded=0;" vertex="1" parent="1">
          <mxGeometry x="160" y="55" width="110" height="30" as="geometry" />
        </mxCell>
        <mxCell id="mzmMYwe42FAZlBr3h1_G-23" value="Site Map" style="text;html=1;strokeColor=none;fillColor=none;align=center;verticalAlign=middle;whiteSpace=wrap;rounded=0;" vertex="1" parent="1">
          <mxGeometry x="260" y="55" width="110" height="30" as="geometry" />
        </mxCell>
        <mxCell id="mzmMYwe42FAZlBr3h1_G-24" value="Contact Us" style="text;html=1;strokeColor=none;fillColor=none;align=center;verticalAlign=middle;whiteSpace=wrap;rounded=0;" vertex="1" parent="1">
          <mxGeometry x="370" y="55" width="110" height="30" as="geometry" />
        </mxCell>
      </root>
    </mxGraphModel>
  </diagram>
  <diagram name="News" id="NaCeNj_soQdYjCqJZ_FS">
    <mxGraphModel dx="1022" dy="402" grid="1" gridSize="10" guides="1" tooltips="1" connect="1" arrows="1" fold="1" page="1" pageScale="1" pageWidth="1100" pageHeight="850" background="none" math="0" shadow="0">
      <root>
        <mxCell id="Dqm3gOpLFE2L0CcS2aZB-0" />
        <mxCell id="Dqm3gOpLFE2L0CcS2aZB-1" parent="Dqm3gOpLFE2L0CcS2aZB-0" />
        <mxCell id="Dqm3gOpLFE2L0CcS2aZB-2" value="" style="whiteSpace=wrap;html=1;rounded=0;shadow=0;labelBackgroundColor=none;strokeColor=#000000;strokeWidth=1;fillColor=none;fontFamily=Verdana;fontSize=12;fontColor=#000000;align=center;comic=1;" vertex="1" parent="Dqm3gOpLFE2L0CcS2aZB-1">
          <mxGeometry x="20" y="20" width="1060" height="810" as="geometry" />
        </mxCell>
        <mxCell id="Dqm3gOpLFE2L0CcS2aZB-3" value="" style="verticalLabelPosition=bottom;shadow=0;dashed=0;align=center;html=1;verticalAlign=top;strokeWidth=1;shape=mxgraph.mockup.graphics.simpleIcon;strokeColor=#999999;rounded=0;labelBackgroundColor=none;fontFamily=Verdana;fontSize=14;fontColor=#000000;comic=1;" vertex="1" parent="Dqm3gOpLFE2L0CcS2aZB-1">
          <mxGeometry x="30" y="30" width="1040" height="780" as="geometry" />
        </mxCell>
        <mxCell id="Dqm3gOpLFE2L0CcS2aZB-10" value="" style="rounded=1;whiteSpace=wrap;html=1;" vertex="1" parent="Dqm3gOpLFE2L0CcS2aZB-1">
          <mxGeometry x="40" y="40" width="450" height="60" as="geometry" />
        </mxCell>
        <mxCell id="Dqm3gOpLFE2L0CcS2aZB-11" value="Biodiversity Matters" style="text;html=1;strokeColor=none;fillColor=none;align=center;verticalAlign=middle;whiteSpace=wrap;rounded=0;" vertex="1" parent="Dqm3gOpLFE2L0CcS2aZB-1">
          <mxGeometry x="50" y="55" width="110" height="30" as="geometry" />
        </mxCell>
        <mxCell id="Dqm3gOpLFE2L0CcS2aZB-12" value="News&lt;span style=&quot;color: rgba(0, 0, 0, 0); font-family: monospace; font-size: 0px; text-align: start;&quot;&gt;%3CmxGraphModel%3E%3Croot%3E%3CmxCell%20id%3D%220%22%2F%3E%3CmxCell%20id%3D%221%22%20parent%3D%220%22%2F%3E%3CmxCell%20id%3D%222%22%20value%3D%22Biodiversity%20Matters%22%20style%3D%22text%3Bhtml%3D1%3BstrokeColor%3Dnone%3BfillColor%3Dnone%3Balign%3Dcenter%3BverticalAlign%3Dmiddle%3BwhiteSpace%3Dwrap%3Brounded%3D0%3B%22%20vertex%3D%221%22%20parent%3D%221%22%3E%3CmxGeometry%20x%3D%2250%22%20y%3D%2255%22%20width%3D%22110%22%20height%3D%2230%22%20as%3D%22geometry%22%2F%3E%3C%2FmxCell%3E%3C%2Froot%3E%3C%2FmxGraphModel%3E&lt;/span&gt;" style="text;html=1;strokeColor=none;fillColor=none;align=center;verticalAlign=middle;whiteSpace=wrap;rounded=0;" vertex="1" parent="Dqm3gOpLFE2L0CcS2aZB-1">
          <mxGeometry x="160" y="55" width="110" height="30" as="geometry" />
        </mxCell>
        <mxCell id="Dqm3gOpLFE2L0CcS2aZB-13" value="Site Map" style="text;html=1;strokeColor=none;fillColor=none;align=center;verticalAlign=middle;whiteSpace=wrap;rounded=0;" vertex="1" parent="Dqm3gOpLFE2L0CcS2aZB-1">
          <mxGeometry x="260" y="55" width="110" height="30" as="geometry" />
        </mxCell>
        <mxCell id="Dqm3gOpLFE2L0CcS2aZB-14" value="Contact Us" style="text;html=1;strokeColor=none;fillColor=none;align=center;verticalAlign=middle;whiteSpace=wrap;rounded=0;" vertex="1" parent="Dqm3gOpLFE2L0CcS2aZB-1">
          <mxGeometry x="370" y="55" width="110" height="30" as="geometry" />
        </mxCell>
      </root>
    </mxGraphModel>
  </diagram>
  <diagram name="Site Map" id="Sj3BqStcoyhGxyxggr_j">
    <mxGraphModel dx="1022" dy="402" grid="1" gridSize="10" guides="1" tooltips="1" connect="1" arrows="1" fold="1" page="1" pageScale="1" pageWidth="1100" pageHeight="850" background="none" math="0" shadow="0">
      <root>
        <mxCell id="4xpGCujqDT7xqTdj1vIV-0" />
        <mxCell id="4xpGCujqDT7xqTdj1vIV-1" parent="4xpGCujqDT7xqTdj1vIV-0" />
        <mxCell id="4xpGCujqDT7xqTdj1vIV-2" value="" style="whiteSpace=wrap;html=1;rounded=0;shadow=0;labelBackgroundColor=none;strokeColor=#000000;strokeWidth=1;fillColor=none;fontFamily=Verdana;fontSize=12;fontColor=#000000;align=center;comic=1;" vertex="1" parent="4xpGCujqDT7xqTdj1vIV-1">
          <mxGeometry x="20" y="20" width="1060" height="810" as="geometry" />
        </mxCell>
        <mxCell id="4xpGCujqDT7xqTdj1vIV-3" value="" style="verticalLabelPosition=bottom;shadow=0;dashed=0;align=center;html=1;verticalAlign=top;strokeWidth=1;shape=mxgraph.mockup.graphics.simpleIcon;strokeColor=#999999;rounded=0;labelBackgroundColor=none;fontFamily=Verdana;fontSize=14;fontColor=#000000;comic=1;" vertex="1" parent="4xpGCujqDT7xqTdj1vIV-1">
          <mxGeometry x="30" y="30" width="1040" height="780" as="geometry" />
        </mxCell>
        <mxCell id="4xpGCujqDT7xqTdj1vIV-4" value="" style="rounded=1;whiteSpace=wrap;html=1;" vertex="1" parent="4xpGCujqDT7xqTdj1vIV-1">
          <mxGeometry x="40" y="40" width="450" height="60" as="geometry" />
        </mxCell>
        <mxCell id="4xpGCujqDT7xqTdj1vIV-5" value="Biodiversity Matters" style="text;html=1;strokeColor=none;fillColor=none;align=center;verticalAlign=middle;whiteSpace=wrap;rounded=0;" vertex="1" parent="4xpGCujqDT7xqTdj1vIV-1">
          <mxGeometry x="50" y="55" width="110" height="30" as="geometry" />
        </mxCell>
        <mxCell id="4xpGCujqDT7xqTdj1vIV-6" value="News&lt;span style=&quot;color: rgba(0, 0, 0, 0); font-family: monospace; font-size: 0px; text-align: start;&quot;&gt;%3CmxGraphModel%3E%3Croot%3E%3CmxCell%20id%3D%220%22%2F%3E%3CmxCell%20id%3D%221%22%20parent%3D%220%22%2F%3E%3CmxCell%20id%3D%222%22%20value%3D%22Biodiversity%20Matters%22%20style%3D%22text%3Bhtml%3D1%3BstrokeColor%3Dnone%3BfillColor%3Dnone%3Balign%3Dcenter%3BverticalAlign%3Dmiddle%3BwhiteSpace%3Dwrap%3Brounded%3D0%3B%22%20vertex%3D%221%22%20parent%3D%221%22%3E%3CmxGeometry%20x%3D%2250%22%20y%3D%2255%22%20width%3D%22110%22%20height%3D%2230%22%20as%3D%22geometry%22%2F%3E%3C%2FmxCell%3E%3C%2Froot%3E%3C%2FmxGraphModel%3E&lt;/span&gt;" style="text;html=1;strokeColor=none;fillColor=none;align=center;verticalAlign=middle;whiteSpace=wrap;rounded=0;" vertex="1" parent="4xpGCujqDT7xqTdj1vIV-1">
          <mxGeometry x="160" y="55" width="110" height="30" as="geometry" />
        </mxCell>
        <mxCell id="4xpGCujqDT7xqTdj1vIV-7" value="Site Map" style="text;html=1;strokeColor=none;fillColor=none;align=center;verticalAlign=middle;whiteSpace=wrap;rounded=0;" vertex="1" parent="4xpGCujqDT7xqTdj1vIV-1">
          <mxGeometry x="260" y="55" width="110" height="30" as="geometry" />
        </mxCell>
        <mxCell id="4xpGCujqDT7xqTdj1vIV-8" value="Contact Us" style="text;html=1;strokeColor=none;fillColor=none;align=center;verticalAlign=middle;whiteSpace=wrap;rounded=0;" vertex="1" parent="4xpGCujqDT7xqTdj1vIV-1">
          <mxGeometry x="370" y="55" width="110" height="30" as="geometry" />
        </mxCell>
      </root>
    </mxGraphModel>
  </diagram>
  <diagram name="Contact Us" id="yXzqRbEomawoQ_rlIEYe">
    <mxGraphModel dx="1022" dy="402" grid="1" gridSize="10" guides="1" tooltips="1" connect="1" arrows="1" fold="1" page="1" pageScale="1" pageWidth="1100" pageHeight="850" background="none" math="0" shadow="0">
      <root>
        <mxCell id="_JCc98MXYc5LmlTHdNtx-0" />
        <mxCell id="_JCc98MXYc5LmlTHdNtx-1" parent="_JCc98MXYc5LmlTHdNtx-0" />
        <mxCell id="_JCc98MXYc5LmlTHdNtx-2" value="" style="whiteSpace=wrap;html=1;rounded=0;shadow=0;labelBackgroundColor=none;strokeColor=#000000;strokeWidth=1;fillColor=none;fontFamily=Verdana;fontSize=12;fontColor=#000000;align=center;comic=1;" vertex="1" parent="_JCc98MXYc5LmlTHdNtx-1">
          <mxGeometry x="20" y="20" width="1060" height="810" as="geometry" />
        </mxCell>
        <mxCell id="_JCc98MXYc5LmlTHdNtx-3" value="" style="verticalLabelPosition=bottom;shadow=0;dashed=0;align=center;html=1;verticalAlign=top;strokeWidth=1;shape=mxgraph.mockup.graphics.simpleIcon;strokeColor=#999999;rounded=0;labelBackgroundColor=none;fontFamily=Verdana;fontSize=14;fontColor=#000000;comic=1;" vertex="1" parent="_JCc98MXYc5LmlTHdNtx-1">
          <mxGeometry x="30" y="30" width="1040" height="780" as="geometry" />
        </mxCell>
        <mxCell id="_JCc98MXYc5LmlTHdNtx-4" value="" style="rounded=1;whiteSpace=wrap;html=1;" vertex="1" parent="_JCc98MXYc5LmlTHdNtx-1">
          <mxGeometry x="40" y="40" width="450" height="60" as="geometry" />
        </mxCell>
        <mxCell id="_JCc98MXYc5LmlTHdNtx-5" value="Biodiversity Matters" style="text;html=1;strokeColor=none;fillColor=none;align=center;verticalAlign=middle;whiteSpace=wrap;rounded=0;" vertex="1" parent="_JCc98MXYc5LmlTHdNtx-1">
          <mxGeometry x="50" y="55" width="110" height="30" as="geometry" />
        </mxCell>
        <mxCell id="_JCc98MXYc5LmlTHdNtx-6" value="News&lt;span style=&quot;color: rgba(0, 0, 0, 0); font-family: monospace; font-size: 0px; text-align: start;&quot;&gt;%3CmxGraphModel%3E%3Croot%3E%3CmxCell%20id%3D%220%22%2F%3E%3CmxCell%20id%3D%221%22%20parent%3D%220%22%2F%3E%3CmxCell%20id%3D%222%22%20value%3D%22Biodiversity%20Matters%22%20style%3D%22text%3Bhtml%3D1%3BstrokeColor%3Dnone%3BfillColor%3Dnone%3Balign%3Dcenter%3BverticalAlign%3Dmiddle%3BwhiteSpace%3Dwrap%3Brounded%3D0%3B%22%20vertex%3D%221%22%20parent%3D%221%22%3E%3CmxGeometry%20x%3D%2250%22%20y%3D%2255%22%20width%3D%22110%22%20height%3D%2230%22%20as%3D%22geometry%22%2F%3E%3C%2FmxCell%3E%3C%2Froot%3E%3C%2FmxGraphModel%3E&lt;/span&gt;" style="text;html=1;strokeColor=none;fillColor=none;align=center;verticalAlign=middle;whiteSpace=wrap;rounded=0;" vertex="1" parent="_JCc98MXYc5LmlTHdNtx-1">
          <mxGeometry x="160" y="55" width="110" height="30" as="geometry" />
        </mxCell>
        <mxCell id="_JCc98MXYc5LmlTHdNtx-7" value="Site Map" style="text;html=1;strokeColor=none;fillColor=none;align=center;verticalAlign=middle;whiteSpace=wrap;rounded=0;" vertex="1" parent="_JCc98MXYc5LmlTHdNtx-1">
          <mxGeometry x="260" y="55" width="110" height="30" as="geometry" />
        </mxCell>
        <mxCell id="_JCc98MXYc5LmlTHdNtx-8" value="Contact Us" style="text;html=1;strokeColor=none;fillColor=none;align=center;verticalAlign=middle;whiteSpace=wrap;rounded=0;" vertex="1" parent="_JCc98MXYc5LmlTHdNtx-1">
          <mxGeometry x="370" y="55" width="110" height="30" as="geometry" />
        </mxCell>
        <mxCell id="SfuKrOWLcLPWGNrqYVww-0" value="From" style="strokeWidth=1;shadow=0;dashed=0;align=center;html=1;shape=mxgraph.mockup.forms.anchor;align=right;spacingRight=2;fontColor=#666666;" vertex="1" parent="_JCc98MXYc5LmlTHdNtx-1">
          <mxGeometry x="480" y="150" width="50" height="18" as="geometry" />
        </mxCell>
        <mxCell id="SfuKrOWLcLPWGNrqYVww-1" value="john@jgraph.com" style="strokeWidth=1;shadow=0;dashed=0;align=center;html=1;shape=mxgraph.mockup.forms.rrect;fillColor=#ffffff;rSize=0;fontColor=#666666;align=left;spacingLeft=3;strokeColor=#999999;" vertex="1" parent="_JCc98MXYc5LmlTHdNtx-1">
          <mxGeometry x="530" y="150" width="460" height="18" as="geometry" />
        </mxCell>
        <mxCell id="SfuKrOWLcLPWGNrqYVww-2" value="Subject" style="strokeWidth=1;shadow=0;dashed=0;align=center;html=1;shape=mxgraph.mockup.forms.anchor;align=right;spacingRight=2;fontColor=#666666;" vertex="1" parent="_JCc98MXYc5LmlTHdNtx-1">
          <mxGeometry x="480" y="185" width="50" height="18" as="geometry" />
        </mxCell>
        <mxCell id="SfuKrOWLcLPWGNrqYVww-3" value="Greeting" style="strokeWidth=1;shadow=0;dashed=0;align=center;html=1;shape=mxgraph.mockup.forms.rrect;fillColor=#ffffff;rSize=0;fontColor=#666666;align=left;spacingLeft=3;strokeColor=#999999;" vertex="1" parent="_JCc98MXYc5LmlTHdNtx-1">
          <mxGeometry x="530" y="185" width="460" height="18" as="geometry" />
        </mxCell>
        <mxCell id="SfuKrOWLcLPWGNrqYVww-4" value="To" style="strokeWidth=1;shadow=0;dashed=0;align=center;html=1;shape=mxgraph.mockup.forms.anchor;align=right;spacingRight=2;fontColor=#666666;" vertex="1" parent="_JCc98MXYc5LmlTHdNtx-1">
          <mxGeometry x="480" y="220" width="50" height="18" as="geometry" />
        </mxCell>
        <mxCell id="SfuKrOWLcLPWGNrqYVww-5" value="fred@jgraph.com" style="strokeWidth=1;shadow=0;dashed=0;align=center;html=1;shape=mxgraph.mockup.forms.rrect;fillColor=#ffffff;rSize=0;fontColor=#666666;align=left;spacingLeft=3;strokeColor=#999999;" vertex="1" parent="_JCc98MXYc5LmlTHdNtx-1">
          <mxGeometry x="530" y="220" width="460" height="18" as="geometry" />
        </mxCell>
        <mxCell id="SfuKrOWLcLPWGNrqYVww-10" value="Lorem ipsum dolor sit amet, consectetur adipisicing elit, sed do eiusmod tempor incididunt ut labore et dolore magna aliqua. Ut enim ad minim veniam, quis nostrud exercitation ullamco laboris nisi ut aliquip ex ea commodo consequat. Duis aute irure dolor in reprehenderit in voluptate velit esse cillum dolore eu fugiat nulla pariatur. Excepteur sint occaecat cupidatat non proident, sunt in culpa qui officia deserunt mollit anim id est laborum." style="strokeWidth=1;shadow=0;dashed=0;align=center;html=1;shape=mxgraph.mockup.forms.rrect;fillColor=#ffffff;rSize=0;fontColor=#666666;align=left;spacingLeft=3;strokeColor=#999999;verticalAlign=top;whiteSpace=wrap;" vertex="1" parent="_JCc98MXYc5LmlTHdNtx-1">
          <mxGeometry x="480" y="277.5" width="510" height="162.5" as="geometry" />
        </mxCell>
        <mxCell id="SfuKrOWLcLPWGNrqYVww-11" value="Submit" style="strokeWidth=1;shadow=0;dashed=0;align=center;html=1;shape=mxgraph.mockup.buttons.button;strokeColor=#666666;fontColor=#ffffff;mainText=;buttonStyle=round;fontSize=17;fontStyle=1;fillColor=#008cff;whiteSpace=wrap;" vertex="1" parent="_JCc98MXYc5LmlTHdNtx-1">
          <mxGeometry x="650" y="470" width="150" height="50" as="geometry" />
        </mxCell>
        <mxCell id="SfuKrOWLcLPWGNrqYVww-12" value="Contact Us" style="text;strokeColor=none;fillColor=none;html=1;fontSize=24;fontStyle=1;verticalAlign=middle;align=center;" vertex="1" parent="_JCc98MXYc5LmlTHdNtx-1">
          <mxGeometry x="170" y="126" width="150" height="42" as="geometry" />
        </mxCell>
        <mxCell id="SfuKrOWLcLPWGNrqYVww-13" value="It would be great to hear from you! Please use this form to get in touch or alternatively you can reach us on our social media channels." style="text;html=1;strokeColor=none;fillColor=none;align=center;verticalAlign=middle;whiteSpace=wrap;rounded=0;" vertex="1" parent="_JCc98MXYc5LmlTHdNtx-1">
          <mxGeometry x="60" y="203" width="370" height="30" as="geometry" />
        </mxCell>
        <mxCell id="SfuKrOWLcLPWGNrqYVww-14" value="" style="ellipse;whiteSpace=wrap;html=1;aspect=fixed;" vertex="1" parent="_JCc98MXYc5LmlTHdNtx-1">
          <mxGeometry x="70" y="290" width="80" height="80" as="geometry" />
        </mxCell>
        <mxCell id="SfuKrOWLcLPWGNrqYVww-15" value="" style="ellipse;whiteSpace=wrap;html=1;aspect=fixed;" vertex="1" parent="_JCc98MXYc5LmlTHdNtx-1">
          <mxGeometry x="205" y="290" width="80" height="80" as="geometry" />
        </mxCell>
        <mxCell id="SfuKrOWLcLPWGNrqYVww-16" value="" style="ellipse;whiteSpace=wrap;html=1;aspect=fixed;" vertex="1" parent="_JCc98MXYc5LmlTHdNtx-1">
          <mxGeometry x="340" y="290" width="80" height="80" as="geometry" />
        </mxCell>
      </root>
    </mxGraphModel>
  </diagram>
  <diagram name="Plants" id="r8zXRz-kTgy1GxKydC7R">
    <mxGraphModel dx="2555" dy="1005" grid="1" gridSize="10" guides="1" tooltips="1" connect="1" arrows="1" fold="1" page="1" pageScale="1" pageWidth="1100" pageHeight="850" background="none" math="0" shadow="0">
      <root>
        <mxCell id="_4m7qrwshm9076J29Ym6-0" />
        <mxCell id="_4m7qrwshm9076J29Ym6-1" parent="_4m7qrwshm9076J29Ym6-0" />
        <mxCell id="_4m7qrwshm9076J29Ym6-2" value="" style="whiteSpace=wrap;html=1;rounded=0;shadow=0;labelBackgroundColor=none;strokeColor=#000000;strokeWidth=1;fillColor=none;fontFamily=Verdana;fontSize=12;fontColor=#000000;align=center;comic=1;" vertex="1" parent="_4m7qrwshm9076J29Ym6-1">
          <mxGeometry x="20" y="20" width="1060" height="810" as="geometry" />
        </mxCell>
        <mxCell id="_4m7qrwshm9076J29Ym6-3" value="" style="verticalLabelPosition=bottom;shadow=0;dashed=0;align=center;html=1;verticalAlign=top;strokeWidth=1;shape=mxgraph.mockup.graphics.simpleIcon;strokeColor=#999999;rounded=0;labelBackgroundColor=none;fontFamily=Verdana;fontSize=14;fontColor=#000000;comic=1;" vertex="1" parent="_4m7qrwshm9076J29Ym6-1">
          <mxGeometry x="30" y="30" width="1040" height="780" as="geometry" />
        </mxCell>
        <mxCell id="_4m7qrwshm9076J29Ym6-4" value="" style="rounded=1;whiteSpace=wrap;html=1;" vertex="1" parent="_4m7qrwshm9076J29Ym6-1">
          <mxGeometry x="40" y="40" width="450" height="60" as="geometry" />
        </mxCell>
        <mxCell id="_4m7qrwshm9076J29Ym6-5" value="Biodiversity Matters" style="text;html=1;strokeColor=none;fillColor=none;align=center;verticalAlign=middle;whiteSpace=wrap;rounded=0;" vertex="1" parent="_4m7qrwshm9076J29Ym6-1">
          <mxGeometry x="50" y="55" width="110" height="30" as="geometry" />
        </mxCell>
        <mxCell id="_4m7qrwshm9076J29Ym6-6" value="News&lt;span style=&quot;color: rgba(0, 0, 0, 0); font-family: monospace; font-size: 0px; text-align: start;&quot;&gt;%3CmxGraphModel%3E%3Croot%3E%3CmxCell%20id%3D%220%22%2F%3E%3CmxCell%20id%3D%221%22%20parent%3D%220%22%2F%3E%3CmxCell%20id%3D%222%22%20value%3D%22Biodiversity%20Matters%22%20style%3D%22text%3Bhtml%3D1%3BstrokeColor%3Dnone%3BfillColor%3Dnone%3Balign%3Dcenter%3BverticalAlign%3Dmiddle%3BwhiteSpace%3Dwrap%3Brounded%3D0%3B%22%20vertex%3D%221%22%20parent%3D%221%22%3E%3CmxGeometry%20x%3D%2250%22%20y%3D%2255%22%20width%3D%22110%22%20height%3D%2230%22%20as%3D%22geometry%22%2F%3E%3C%2FmxCell%3E%3C%2Froot%3E%3C%2FmxGraphModel%3E&lt;/span&gt;" style="text;html=1;strokeColor=none;fillColor=none;align=center;verticalAlign=middle;whiteSpace=wrap;rounded=0;" vertex="1" parent="_4m7qrwshm9076J29Ym6-1">
          <mxGeometry x="160" y="55" width="110" height="30" as="geometry" />
        </mxCell>
        <mxCell id="_4m7qrwshm9076J29Ym6-7" value="Site Map" style="text;html=1;strokeColor=none;fillColor=none;align=center;verticalAlign=middle;whiteSpace=wrap;rounded=0;" vertex="1" parent="_4m7qrwshm9076J29Ym6-1">
          <mxGeometry x="260" y="55" width="110" height="30" as="geometry" />
        </mxCell>
        <mxCell id="_4m7qrwshm9076J29Ym6-8" value="Contact Us" style="text;html=1;strokeColor=none;fillColor=none;align=center;verticalAlign=middle;whiteSpace=wrap;rounded=0;" vertex="1" parent="_4m7qrwshm9076J29Ym6-1">
          <mxGeometry x="370" y="55" width="110" height="30" as="geometry" />
        </mxCell>
      </root>
    </mxGraphModel>
  </diagram>
  <diagram name="Vertebrates" id="9uL37GGGpJgcRG7kvPZ-">
    <mxGraphModel dx="1022" dy="402" grid="1" gridSize="10" guides="1" tooltips="1" connect="1" arrows="1" fold="1" page="1" pageScale="1" pageWidth="1100" pageHeight="850" background="none" math="0" shadow="0">
      <root>
        <mxCell id="W2F7rhmdBvA8T_19YJpf-0" />
        <mxCell id="W2F7rhmdBvA8T_19YJpf-1" parent="W2F7rhmdBvA8T_19YJpf-0" />
        <mxCell id="W2F7rhmdBvA8T_19YJpf-2" value="" style="whiteSpace=wrap;html=1;rounded=0;shadow=0;labelBackgroundColor=none;strokeColor=#000000;strokeWidth=1;fillColor=none;fontFamily=Verdana;fontSize=12;fontColor=#000000;align=center;comic=1;" vertex="1" parent="W2F7rhmdBvA8T_19YJpf-1">
          <mxGeometry x="20" y="20" width="1060" height="810" as="geometry" />
        </mxCell>
        <mxCell id="W2F7rhmdBvA8T_19YJpf-3" value="" style="verticalLabelPosition=bottom;shadow=0;dashed=0;align=center;html=1;verticalAlign=top;strokeWidth=1;shape=mxgraph.mockup.graphics.simpleIcon;strokeColor=#999999;rounded=0;labelBackgroundColor=none;fontFamily=Verdana;fontSize=14;fontColor=#000000;comic=1;" vertex="1" parent="W2F7rhmdBvA8T_19YJpf-1">
          <mxGeometry x="30" y="30" width="1040" height="780" as="geometry" />
        </mxCell>
        <mxCell id="W2F7rhmdBvA8T_19YJpf-4" value="" style="rounded=1;whiteSpace=wrap;html=1;" vertex="1" parent="W2F7rhmdBvA8T_19YJpf-1">
          <mxGeometry x="40" y="40" width="450" height="60" as="geometry" />
        </mxCell>
        <mxCell id="W2F7rhmdBvA8T_19YJpf-5" value="Biodiversity Matters" style="text;html=1;strokeColor=none;fillColor=none;align=center;verticalAlign=middle;whiteSpace=wrap;rounded=0;" vertex="1" parent="W2F7rhmdBvA8T_19YJpf-1">
          <mxGeometry x="50" y="55" width="110" height="30" as="geometry" />
        </mxCell>
        <mxCell id="W2F7rhmdBvA8T_19YJpf-6" value="News&lt;span style=&quot;color: rgba(0, 0, 0, 0); font-family: monospace; font-size: 0px; text-align: start;&quot;&gt;%3CmxGraphModel%3E%3Croot%3E%3CmxCell%20id%3D%220%22%2F%3E%3CmxCell%20id%3D%221%22%20parent%3D%220%22%2F%3E%3CmxCell%20id%3D%222%22%20value%3D%22Biodiversity%20Matters%22%20style%3D%22text%3Bhtml%3D1%3BstrokeColor%3Dnone%3BfillColor%3Dnone%3Balign%3Dcenter%3BverticalAlign%3Dmiddle%3BwhiteSpace%3Dwrap%3Brounded%3D0%3B%22%20vertex%3D%221%22%20parent%3D%221%22%3E%3CmxGeometry%20x%3D%2250%22%20y%3D%2255%22%20width%3D%22110%22%20height%3D%2230%22%20as%3D%22geometry%22%2F%3E%3C%2FmxCell%3E%3C%2Froot%3E%3C%2FmxGraphModel%3E&lt;/span&gt;" style="text;html=1;strokeColor=none;fillColor=none;align=center;verticalAlign=middle;whiteSpace=wrap;rounded=0;" vertex="1" parent="W2F7rhmdBvA8T_19YJpf-1">
          <mxGeometry x="160" y="55" width="110" height="30" as="geometry" />
        </mxCell>
        <mxCell id="W2F7rhmdBvA8T_19YJpf-7" value="Site Map" style="text;html=1;strokeColor=none;fillColor=none;align=center;verticalAlign=middle;whiteSpace=wrap;rounded=0;" vertex="1" parent="W2F7rhmdBvA8T_19YJpf-1">
          <mxGeometry x="260" y="55" width="110" height="30" as="geometry" />
        </mxCell>
        <mxCell id="W2F7rhmdBvA8T_19YJpf-8" value="Contact Us" style="text;html=1;strokeColor=none;fillColor=none;align=center;verticalAlign=middle;whiteSpace=wrap;rounded=0;" vertex="1" parent="W2F7rhmdBvA8T_19YJpf-1">
          <mxGeometry x="370" y="55" width="110" height="30" as="geometry" />
        </mxCell>
      </root>
    </mxGraphModel>
  </diagram>
  <diagram name="Invertebrates" id="cbTbH6Rm87zgtqgdIzyQ">
    <mxGraphModel dx="1022" dy="402" grid="1" gridSize="10" guides="1" tooltips="1" connect="1" arrows="1" fold="1" page="1" pageScale="1" pageWidth="1100" pageHeight="850" background="none" math="0" shadow="0">
      <root>
        <mxCell id="XDGMzhkfLGXI9rBzBVZn-0" />
        <mxCell id="XDGMzhkfLGXI9rBzBVZn-1" parent="XDGMzhkfLGXI9rBzBVZn-0" />
        <mxCell id="XDGMzhkfLGXI9rBzBVZn-2" value="" style="whiteSpace=wrap;html=1;rounded=0;shadow=0;labelBackgroundColor=none;strokeColor=#000000;strokeWidth=1;fillColor=none;fontFamily=Verdana;fontSize=12;fontColor=#000000;align=center;comic=1;" vertex="1" parent="XDGMzhkfLGXI9rBzBVZn-1">
          <mxGeometry x="20" y="20" width="1060" height="810" as="geometry" />
        </mxCell>
        <mxCell id="XDGMzhkfLGXI9rBzBVZn-3" value="" style="verticalLabelPosition=bottom;shadow=0;dashed=0;align=center;html=1;verticalAlign=top;strokeWidth=1;shape=mxgraph.mockup.graphics.simpleIcon;strokeColor=#999999;rounded=0;labelBackgroundColor=none;fontFamily=Verdana;fontSize=14;fontColor=#000000;comic=1;" vertex="1" parent="XDGMzhkfLGXI9rBzBVZn-1">
          <mxGeometry x="30" y="30" width="1040" height="780" as="geometry" />
        </mxCell>
        <mxCell id="XDGMzhkfLGXI9rBzBVZn-4" value="" style="rounded=1;whiteSpace=wrap;html=1;" vertex="1" parent="XDGMzhkfLGXI9rBzBVZn-1">
          <mxGeometry x="40" y="40" width="450" height="60" as="geometry" />
        </mxCell>
        <mxCell id="XDGMzhkfLGXI9rBzBVZn-5" value="Biodiversity Matters" style="text;html=1;strokeColor=none;fillColor=none;align=center;verticalAlign=middle;whiteSpace=wrap;rounded=0;" vertex="1" parent="XDGMzhkfLGXI9rBzBVZn-1">
          <mxGeometry x="50" y="55" width="110" height="30" as="geometry" />
        </mxCell>
        <mxCell id="XDGMzhkfLGXI9rBzBVZn-6" value="News&lt;span style=&quot;color: rgba(0, 0, 0, 0); font-family: monospace; font-size: 0px; text-align: start;&quot;&gt;%3CmxGraphModel%3E%3Croot%3E%3CmxCell%20id%3D%220%22%2F%3E%3CmxCell%20id%3D%221%22%20parent%3D%220%22%2F%3E%3CmxCell%20id%3D%222%22%20value%3D%22Biodiversity%20Matters%22%20style%3D%22text%3Bhtml%3D1%3BstrokeColor%3Dnone%3BfillColor%3Dnone%3Balign%3Dcenter%3BverticalAlign%3Dmiddle%3BwhiteSpace%3Dwrap%3Brounded%3D0%3B%22%20vertex%3D%221%22%20parent%3D%221%22%3E%3CmxGeometry%20x%3D%2250%22%20y%3D%2255%22%20width%3D%22110%22%20height%3D%2230%22%20as%3D%22geometry%22%2F%3E%3C%2FmxCell%3E%3C%2Froot%3E%3C%2FmxGraphModel%3E&lt;/span&gt;" style="text;html=1;strokeColor=none;fillColor=none;align=center;verticalAlign=middle;whiteSpace=wrap;rounded=0;" vertex="1" parent="XDGMzhkfLGXI9rBzBVZn-1">
          <mxGeometry x="160" y="55" width="110" height="30" as="geometry" />
        </mxCell>
        <mxCell id="XDGMzhkfLGXI9rBzBVZn-7" value="Site Map" style="text;html=1;strokeColor=none;fillColor=none;align=center;verticalAlign=middle;whiteSpace=wrap;rounded=0;" vertex="1" parent="XDGMzhkfLGXI9rBzBVZn-1">
          <mxGeometry x="260" y="55" width="110" height="30" as="geometry" />
        </mxCell>
        <mxCell id="XDGMzhkfLGXI9rBzBVZn-8" value="Contact Us" style="text;html=1;strokeColor=none;fillColor=none;align=center;verticalAlign=middle;whiteSpace=wrap;rounded=0;" vertex="1" parent="XDGMzhkfLGXI9rBzBVZn-1">
          <mxGeometry x="370" y="55" width="110" height="30" as="geometry" />
        </mxCell>
      </root>
    </mxGraphModel>
  </diagram>
</mxfile>
